<?xml version="1.0" encoding="UTF-8" standalone="yes"?>
<!DOCTYPE svg PUBLIC "-//W3C//DTD SVG 20010904//EN" "http://www.w3.org/TR/2001/REC-SVG-20010904/DTD/svg10.dtd">

<svg xmlns="http://www.w3.org/2000/svg"
	width="170" height="100"
	viewBox="0 0 170 100"
>
	<circle class="connector" cx="5" cy="50" r="4" stroke="black" stroke-width="1.5" fill="white"/>
	<line x1="8.5" y1="50" x2="26.5" y2="50" stroke="black" stroke-width="3"/>
	<path d="M 25,50 a 15,15 0 0 1 45,0" fill="none" stroke="black" stroke-width="3"/>
	<path d="M 50,50 a 15,15 0 0 1 45,0" fill="none" stroke="black" stroke-width="3"/>
	<path d="M 75,50 a 15,15 0 0 1 45,0" fill="none" stroke="black" stroke-width="3"/>
	<path d="M 100,50 a 15,15 0 0 1 45,0" fill="none" stroke="black" stroke-width="3"/>
	<path d="M 70,50 a 10,15 0 0 1 -20,0" fill="none" stroke="black" stroke-width="3"/>
	<path d="M 95,50 a 10,15 0 0 1 -20,0" fill="none" stroke="black" stroke-width="3"/>
	<path d="M 120,50 a 10,15 0 0 1 -20,0" fill="none" stroke="black" stroke-width="3"/>
	<line x1="143.5" y1="50" x2="161.5" y2="50" stroke="black" stroke-width="3"/>
	<circle class="connector" cx="165" cy="50" r="4" stroke="black" stroke-width="1.5" fill="white"/>
</svg>