<?xml version="1.0" encoding="UTF-8" standalone="yes"?>
<!DOCTYPE svg PUBLIC "-//W3C//DTD SVG 20010904//EN" "http://www.w3.org/TR/2001/REC-SVG-20010904/DTD/svg10.dtd">

<svg xmlns="http://www.w3.org/2000/svg"
	width="100" height="100"
	viewBox="0 0 100 100"
>
	<circle class="node both" cx="3" cy="50" r="2.5" stroke="black" stroke-width="1" fill="white"/>
	<line x1="5" y1="50" x2="16" y2="50" stroke="black" stroke-width="2"/>
	<path d="M 15,50 a 10,12.5 0 0 1 25,0" fill="none" stroke="black" stroke-width="2"/>
	<path d="M 40,50 a 5,10 0 0 1 -10,0" fill="none" stroke="black" stroke-width="2"/>
	<path d="M 30,50 a 10,12.5 0 0 1 25,0" fill="none" stroke="black" stroke-width="2"/>
	<path d="M 55,50 a 5,10 0 0 1 -10,0" fill="none" stroke="black" stroke-width="2"/>
	<path d="M 45,50 a 10,12.5 0 0 1 25,0" fill="none" stroke="black" stroke-width="2"/>
	<path d="M 70,50 a 5,10 0 0 1 -10,0" fill="none" stroke="black" stroke-width="2"/>
	<path d="M 60,50 a 10,12.5 0 0 1 25,0" fill="none" stroke="black" stroke-width="2"/>
	<line x1="84" y1="50" x2="95" y2="50" stroke="black" stroke-width="2"/>
	<circle class="node both" cx="97" cy="50" r="2.5" stroke="black" stroke-width="1" fill="white"/>
</svg>