<?xml version="1.0" encoding="UTF-8" standalone="yes"?>
<!DOCTYPE svg PUBLIC "-//W3C//DTD SVG 20010904//EN" "http://www.w3.org/TR/2001/REC-SVG-20010904/DTD/svg10.dtd">

<svg xmlns="http://www.w3.org/2000/svg"
	width="170" height="100"
	viewBox="0 0 170 100"
>
	<path d="M 25,50 A 15 15 0 0 1 70 50" fill="none" stroke="black" stroke-width="3"/>
	<path d="M 50,50 A 15 15 0 0 1 95 50" fill="none" stroke="black" stroke-width="3"/>
	<path d="M 75,50 A 15 15 0 0 1 120 50" fill="none" stroke="black" stroke-width="3"/>
	<path d="M 100,50 A 15 15 0 0 1 145 50" fill="none" stroke="black" stroke-width="3"/>

	<path d="M 70,50 A 10 15 0 0 1 50 50" fill="none" stroke="black" stroke-width="3"/>
	<path d="M 95,50 A 10 15 0 0 1 75 50" fill="none" stroke="black" stroke-width="3"/>
	<path d="M 120,50 A 10 15 0 0 1 100 50" fill="none" stroke="black" stroke-width="3"/>
	

	<line x1="0" y1="50" x2="26.5" y2="50" stroke="black" stroke-width="3"/>
	<line x1="143.5" y1="50" x2="170" y2="50" stroke="black" stroke-width="3"/>
</svg>