<?xml version="1.0" encoding="UTF-8" standalone="no"?>
<!DOCTYPE svg PUBLIC "-//W3C//DTD SVG 20010904//EN"
              "http://www.w3.org/TR/2001/REC-SVG-20010904/DTD/svg10.dtd">

<svg xmlns="http://www.w3.org/2000/svg"
     width="216.765mm" height="216.765mm"
     viewBox="0 0 1024 1024">
  <path id="Selection"
        fill="black" stroke="black" stroke-width="1"
        d="M 353.00,82.21
           C 353.00,82.21 390.00,82.21 390.00,82.21
             409.43,82.03 440.15,87.88 459.00,93.29
             554.99,120.86 628.42,191.25 660.00,286.00
             667.34,308.01 672.23,330.87 674.08,354.00
             674.08,354.00 675.00,364.00 675.00,364.00
             675.00,364.00 675.00,396.00 675.00,396.00
             675.00,396.00 674.09,408.00 674.09,408.00
             671.61,441.86 661.53,479.44 646.74,510.00
             640.38,523.14 633.27,535.77 625.31,548.00
             622.87,551.74 616.86,557.38 619.54,562.00
             620.58,563.79 626.21,569.21 628.00,571.00
             628.00,571.00 644.00,587.00 644.00,587.00
             644.00,587.00 689.00,631.96 689.00,631.96
             689.00,631.96 699.00,641.01 699.00,641.01
             699.00,641.01 770.00,712.00 770.00,712.00
             770.00,712.00 781.00,722.04 781.00,722.04
             781.00,722.04 803.00,744.00 803.00,744.00
             803.00,744.00 857.00,797.91 857.00,797.91
             857.00,797.91 915.00,855.00 915.00,855.00
             930.06,870.06 942.53,877.11 941.99,901.00
             941.44,924.97 921.57,942.53 898.00,941.99
             880.18,941.58 866.88,928.83 855.00,917.00
             855.00,917.00 800.00,862.04 800.00,862.04
             800.00,862.04 791.00,853.96 791.00,853.96
             791.00,853.96 734.00,797.01 734.00,797.01
             734.00,797.01 723.00,786.99 723.00,786.99
             723.00,786.99 667.00,731.01 667.00,731.01
             667.00,731.01 657.00,721.96 657.00,721.96
             657.00,721.96 638.00,703.00 638.00,703.00
             638.00,703.00 600.00,665.01 600.00,665.01
             600.00,665.01 585.00,651.00 585.00,651.00
             585.00,651.00 567.00,633.00 567.00,633.00
             565.25,631.25 559.67,625.49 558.00,624.45
             554.38,622.19 552.04,624.32 549.00,626.43
             549.00,626.43 533.00,636.95 533.00,636.95
             509.99,651.36 484.07,662.51 458.00,670.00
             389.97,689.53 310.84,683.64 247.00,652.74
             207.25,633.50 171.37,606.35 143.46,572.00
             119.20,542.15 100.45,507.76 89.02,471.00
             56.24,365.52 84.82,247.36 163.09,169.09
             199.43,132.75 246.39,105.57 296.00,92.15
             308.27,88.83 322.40,85.94 335.00,84.28
             335.00,84.28 353.00,82.21 353.00,82.21 Z
           M 374.00,162.32
           C 368.03,163.08 366.86,162.97 361.00,163.00
             351.01,163.05 329.82,166.72 320.00,169.42
             257.41,186.63 208.45,226.84 179.37,285.00
             166.99,309.76 158.32,343.31 158.00,371.00
             158.00,371.00 157.08,382.00 157.08,382.00
             157.08,382.00 158.00,397.00 158.00,397.00
             158.15,409.14 162.20,429.17 165.58,441.00
             180.16,492.12 210.68,534.10 255.00,563.65
             272.05,575.01 293.29,584.80 313.00,590.42
             327.26,594.49 349.29,598.82 364.00,599.00
             364.00,599.00 384.00,599.00 384.00,599.00
             415.90,598.95 454.20,586.95 482.00,571.69
             502.93,560.20 526.88,540.28 542.08,522.00
             603.86,447.72 611.61,344.76 559.56,263.00
             547.04,243.32 530.93,226.06 513.00,211.25
             494.09,195.63 472.06,183.54 449.00,175.31
             432.51,169.42 407.45,163.08 390.00,163.00
             390.00,163.00 374.00,162.32 374.00,162.32 Z
           M 358.00,193.14
           C 358.00,193.14 374.00,193.14 374.00,193.14
             374.00,193.14 388.00,193.14 388.00,193.14
             399.76,193.02 425.04,197.60 436.00,201.71
             451.93,207.69 449.55,225.33 439.00,230.43
             431.45,234.08 422.59,229.77 415.00,227.87
             402.31,224.70 386.08,222.85 373.00,223.00
             373.00,223.00 363.00,223.92 363.00,223.92
             322.54,227.15 283.98,247.56 257.29,278.00
             233.72,304.88 219.78,335.26 216.92,371.00
             216.92,371.00 216.00,381.00 216.00,381.00
             215.90,389.92 217.76,407.24 219.66,416.00
             219.66,416.00 224.82,437.00 224.82,437.00
             225.60,443.81 222.64,450.45 216.00,453.15
             208.03,456.39 199.11,452.56 195.55,445.00
             190.98,435.27 186.02,405.16 186.00,394.00
             185.96,370.85 185.91,355.82 192.43,333.00
             207.27,280.97 243.46,236.54 292.00,212.27
             314.31,201.11 333.68,196.95 358.00,193.14 Z" />
</svg>
